<?xml version="1.0" encoding="UTF-8"?>
<!DOCTYPE svg PUBLIC "-//W3C//DTD SVG 1.0//EN" "http://www.w3.org/TR/2001/REC-SVG-20010904/DTD/svg10.dtd">
<!-- Creator: CorelDRAW X8 -->
<svg xmlns="http://www.w3.org/2000/svg" xml:space="preserve" width="300mm" height="51.5266mm" version="1.0" style="shape-rendering:geometricPrecision; text-rendering:geometricPrecision; image-rendering:optimizeQuality; fill-rule:evenodd; clip-rule:evenodd"
     viewBox="0 0 29712 5103"
     xmlns:xlink="http://www.w3.org/1999/xlink">
 <defs>
  <style type="text/css">
   <![CDATA[
    .fil0 {fill:white}
   ]]>
  </style>
 </defs>
    <g id="Ebene_x0020_1">
  <metadata id="CorelCorpID_0Corel-Layer"/>
        <path class="fil0" d="M6179 3953c8,-75 52,-267 150,-267 10,0 -3,-121 16,-129l-83 -17c36,-69 18,-53 70,-119 2,-5 26,10 29,5 15,-24 25,-3 41,-13 0,-21 -4,-65 12,-79 5,-20 27,-12 39,-30l-4 -25 14 -30 2 -1c4,-24 4,-43 20,-63 1,-5 4,-10 7,-15 56,-92 3,41 29,-91l24 -24 31 -5c9,-23 19,-46 32,-67l7 -13 7 -4c4,-12 11,-21 19,-29 5,-11 10,-21 18,-31 5,-20 14,-44 19,-59 8,-20 18,-48 33,-68 4,-10 9,-17 15,-27l0 -20 32 -32 8 0c1,-4 2,-9 2,-12l0 -9 6 -18 6 -7c28,-35 50,-82 61,-126l5 -21 37 -24 12 3c26,-28 52,-133 58,-163l4 -25 41 -24 32 -83 11 -13 9 -6c4,-22 15,-40 35,-49l2 -26 15 -23 19 -11c5,-16 11,-31 11,-44l0 -11 8 -21 18 -17c4,-10 10,-18 18,-26l1 -3 14 -29c5,-39 28,-48 55,-67l0 -1 8 -17 1 -1c7,-13 16,-38 19,-50l0 -12 17 -26 17 -9 4 -6c6,-18 16,-36 29,-50l35 -96 19 -13c6,-14 15,-26 29,-32l5 -8c9,-34 22,-79 50,-102 6,-19 18,-34 35,-42l5 -61 32 -29 21 0c2,0 4,0 5,-1 8,-8 21,-66 43,-103 7,-23 23,-42 46,-49l8 -46 11 -18 9 -7c4,-3 7,-5 11,-7l0 -3c0,-10 6,-24 13,-39l-35 -17 6 -40c8,-57 23,-93 93,-93l22 0 9 8c8,-11 17,-23 24,-32l25 -75 16 -17 34 -15c21,-28 51,-54 76,-75 21,-18 68,-52 85,-72l3 -7 16 -14 129 -47 39 28c1,0 2,0 3,0 23,0 43,11 57,28 12,4 25,8 38,9l54 -55 35 -5 53 26 15 41 -9 20c-8,19 -11,41 -14,62 2,4 4,7 6,9l26 4 2 5c17,4 30,14 44,24 51,4 100,25 100,88 0,0 0,1 0,1 0,0 0,0 0,1l20 -9 23 24 2 0 2 3 30 30 -21 50c0,0 0,1 1,1l28 5 22 55 -16 25c-3,3 -3,11 -3,15l0 18 -17 23 0 1 -2 7c0,2 0,4 0,7 -1,10 -3,19 -8,26 4,23 -2,45 -18,59l-9 22 -14 16 -3 1c-5,12 -12,22 -22,30l-25 51 -7 4c-4,13 -10,24 -18,32 -14,66 -55,166 -87,198l-6 6c-5,16 -16,29 -31,37l-17 27 -25 13 -8 0c0,8 -1,18 -1,28l2 2c20,9 35,27 35,53 0,23 -9,41 -23,57l-3 32 -6 15 -29 37c-4,11 -10,20 -19,30l-8 20 -8 7c-41,42 -39,112 -102,159 -20,30 -58,64 -92,83 -1,18 6,29 -8,55 -13,24 -34,35 -59,40l-10 10c10,23 16,48 16,70l0 5 -2 10 -11 30c-5,47 -36,69 -38,88l-1 5 -3 11 -14 24c-3,12 -8,20 -15,32l0 0 -5 16 -4 7c-17,24 -35,50 -55,72 -10,35 -30,92 -45,126 -2,19 -7,30 -17,48l0 3 -4 15 -51 82c-4,39 -23,47 -41,79l-2 11 -12 20 -2 1c0,2 -1,5 -1,6l0 11 -8 20 -31 31 -10 39 -8 12 -22 23 -40 93 -28 19 -17 0c-11,0 -21,-2 -31,-5l0 1 -21 15 45 44 8 21 0 11c0,55 -43,135 -105,135 -21,0 -39,-9 -51,-22 -8,18 -14,33 -16,41l0 5 -5 13 -24 34 0 4c-12,66 -69,135 -94,189l31 -13 25 25c32,-12 79,-27 96,-27 3,0 7,0 10,0l5 -6 23 -11 12 0c50,0 100,-12 151,-16 15,-11 35,-17 55,-17 129,-16 254,-38 380,-66l6 -1 13 0 18 4c15,-10 33,-17 51,-17 11,0 21,3 30,8 84,-10 202,7 252,-21l16 -10 38 5 5 6c23,-4 47,-7 68,-14l27 -9 12 8c3,-2 6,-4 9,-5l15 -8 17 3 10 -8 63 10 23 -7 14 0 35 7 3 1 48 0 24 -11 35 8c13,-10 30,-13 46,-8l23 -5 14 11 34 -10 88 36 28 0 33 33 0 23c0,10 -3,19 -8,27 11,3 21,8 29,15 4,-12 10,-22 18,-32 8,-20 17,-40 27,-60 9,-53 35,-136 81,-174 10,-51 36,-93 39,-140l1 -13 13 -22 54 -36 4 -18 -5 -9 0 -15c0,-40 25,-67 60,-75 23,-29 55,-77 57,-97l0 -9 6 -17 21 -28c-6,-10 -10,-20 -10,-38 0,-35 18,-53 44,-61 2,-5 4,-9 7,-13l-31 0 -4 1 -15 -2c-20,-3 -53,5 -76,5 -5,0 -10,0 -15,-1l-31 34 -25 0c-27,0 -72,4 -110,-4l-10 13 -26 0c-30,0 -52,-8 -67,-24l-10 3 -7 0c-2,0 -4,0 -6,0l-24 20 -72 -12c-33,-3 -66,-28 -66,-64 0,-46 32,-55 66,-62l13 -10 5 0 29 -21 7 0 13 -12 23 0c0,0 0,0 1,0l2 -4 25 -13 13 0c13,0 17,-7 23,-18l0 0 -46 -52 -7 -19 0 -10c0,-18 6,-33 15,-45l-10 -21 56 -56 24 12c1,-4 3,-8 5,-11l1 -3c-7,-2 -13,-5 -19,-8l-8 8 -63 -3 -18 15 -17 0c-18,1 -73,12 -96,19l-13 14 -156 0 -27 -16 -24 -49 8 -38 84 -67 12 -6 82 -14 13 -14 0 -18 28 -32 20 -3c46,-6 93,-21 137,-39 10,-22 30,-36 59,-36 3,0 7,0 12,0l0 -1 29 -20 18 0c2,0 5,0 7,0l9 -4 0 -6 32 -32 23 0c15,0 24,2 32,6 11,-7 24,-11 38,-12 13,-10 30,-15 47,-15 2,0 4,0 5,0 12,-8 26,-13 41,-13 17,0 31,5 42,14l3 -2 11 -2c53,-11 118,-9 170,-24l9 -10 17 -8 54 -6 13 3 13 -15 27 -10 4 1 3 -4 23 0c25,0 52,-12 83,-16l3 -4 9 -10 12 -7c5,-12 11,-25 18,-37l0 -35 7 -19 29 -32c2,-15 8,-29 16,-41 3,-16 9,-28 20,-44l1 -6 8 -15 6 -5c1,-2 1,-6 1,-8l0 -8 5 -16 4 -7c2,-2 3,-8 3,-11l0 -14 13 -24 7 -5c2,-3 3,-9 4,-12l3 -9 12 -15 20 -12c8,-35 28,-68 56,-91 5,-12 10,-23 16,-34 -10,-4 -19,-10 -28,-17l-14 9 -16 -5 -14 25 -18 0 -6 6 -15 8 -8 2c-19,4 -36,5 -54,3l-23 18 -29 -11c-30,4 -59,8 -89,8l-2 0 -3 -1 -1 0 -4 7 -71 14 -32 32 -42 -11 -28 18 -49 -39 -7 3 -18 2 -40 -7c-8,1 -17,3 -22,6l-11 11 -40 4 -85 -57 2 -7c-4,-1 -7,-2 -11,-3l-24 7 -21 -1 -47 -24 -14 -43 3 -7 -11 2 -35 -19 -2 -6c-1,0 -1,0 -2,0l-6 2c-11,5 -24,9 -37,13l-10 3 -19 0 -20 -8 -28 0 -28 -19 -23 -59 20 -44 23 -7c1,0 2,-1 3,-1l-11 -9 2 -3c-53,23 -128,-7 -152,8l-7 4 -15 4 -41 0 -16 -4 -52 -35 19 -75 38 -5c118,-13 225,-85 350,-84 31,-18 58,-15 91,-29l15 -6 30 5c22,-7 40,-24 73,-24l3 0 7 1 11 3c27,-4 84,-19 113,-28l5 -6 43 -6 9 -14 33 4c21,3 85,-16 104,-26l6 -4 14 -4 3 0 27 -13 13 -3 6 0c81,0 71,-11 154,-14l5 -2 17 -3c6,1 93,-14 105,-15l10 -12 19 -4c44,-11 61,-2 94,-17l5 -4 15 -5c118,-5 79,33 169,-47l20 -8 0 -5 5 -16 5 -7c19,-26 60,-80 66,-87 31,-36 21,-12 57,-44l1 -1 3 -2 2 -1c21,-15 72,-35 97,-35l27 0 33 33 0 23c0,32 93,19 60,56l0 4c40,32 27,90 150,-23l17 -12 41 3 8 8c3,-1 6,-2 9,-3l29 -9 46 38 -3 28 53 13 0 2 13 -14 22 -10 12 0c158,0 147,-67 130,-39 27,3 59,6 79,5l0 -1 39 -31 17 -6 10 0c26,0 103,7 132,-1l2 -3 24 -13 691 0c160,0 316,67 473,67l14 0 25 13 2 4c1,0 2,0 3,0 22,4 43,9 59,21l151 0 20 8 3 4c3,0 6,1 8,1l14 0 24 13 3 3 38 0 23 79 -1 1 161 0 31 25 9 43 0 5 0 3c0,36 -21,56 -51,67 -11,61 -104,53 -156,51l-32 15 -11 2 -6 0c-18,0 -37,-4 -53,-13 -23,3 -49,3 -69,7l-5 5c2,6 2,13 2,21l0 3 0 5 -2 8c124,11 246,42 370,42 55,0 162,-18 218,17l14 -17 72 0 27 16 25 51 -13 42 -72 41 -51 -21 -1 -6 -40 21 -13 4 -7 0c-10,0 -22,-2 -33,-3l-16 16 -23 0c-62,0 -122,11 -184,22l-34 23 -16 5 -8 0c-51,0 -82,33 -130,33 -18,0 -35,-5 -52,-11 -124,17 -245,41 -371,41l-129 0c-9,0 -19,-2 -27,-4l-1 1 -65 7 -2 0 -2 0c0,0 -1,0 -2,0l-12 12 -69 0c-11,13 -25,21 -46,21 -16,0 -28,-5 -37,-13 -6,3 -11,6 -14,7l-6 3 -12 3 -72 0c-14,11 -31,17 -48,17 -11,0 -22,-3 -31,-9 -16,2 -37,1 -53,2l-2 14 -31 26 -21 0c-40,0 -80,13 -122,16l-23 19 -42 -2 -5 -5c-6,1 -11,2 -17,2 -11,0 -23,-3 -34,-8 -13,4 -28,10 -38,14l-23 17 -52 -18 -100 14 -12 -10c-11,5 -23,11 -28,15l-7 4 -16 5 -8 0c-36,0 -68,-17 -96,-17 -49,0 -101,32 -160,37l-8 5c-7,7 -15,14 -23,19l0 10 -12 16c-24,33 -47,67 -67,103l-11 20 -12 3c-3,24 -18,38 -38,46l-49 73 0 1c88,-4 176,-18 264,-17 26,-15 55,-27 84,-35l6 -2 13 0 7 1c23,5 39,17 52,32l41 0 0 0 27 -16 15 0c16,0 32,3 46,9l84 -34 36 28c17,1 34,1 50,6 22,-15 52,-12 76,4 25,0 51,7 67,23 37,7 95,9 134,18 67,-1 235,-31 287,32 30,-1 60,-5 89,-10l26 -5 16 14c9,-2 17,-5 23,-8l28 -14 52 32 0 17c4,4 6,8 9,12 52,0 104,10 104,69l0 11 -1 3 2 3 -16 61 -30 24 -35 0c1,1 1,2 1,3 0,21 -9,36 -23,48 -9,23 -28,41 -58,41 -7,0 -13,-1 -19,-3 -16,14 -40,-17 -65,-17l-154 -8c-37,13 -74,27 -110,40l30 68c2,0 157,-12 159,-12 39,0 121,29 121,68 0,65 -93,60 -154,60 -2,0 -4,0 -6,0l-20 17 -20 0c-40,0 -80,2 -119,6 1,5 2,12 2,18 0,43 -27,77 -72,77l-2 0 -3 -1 -8 -1 -6 6 -20 8 -72 0 -25 25 -23 0c-40,0 -89,12 -132,18 -12,8 -26,12 -41,14l-25 19 -22 5 -11 -2c-19,-3 -69,-14 -94,-13l-3 6 -38 15 -13 -4 -39 25 -40 -18 -28 15 -13 4 -42 0c-8,5 -18,8 -32,8 -5,0 -9,0 -14,-1l-1 1 -9 0c-14,11 -27,17 -47,17 -27,0 -43,-7 -58,-19 -17,8 -34,12 -53,21l-2 2 -24 13 -57 0 -8 -4 -124 48 -32 -7 -1 0c-7,3 -16,5 -26,5l-9 0 -15 -5 -7 -5c-12,-7 -24,-15 -34,-24l-26 0 -18 1c-4,26 -23,43 -47,50 -5,9 -12,17 -21,22 -17,21 -45,32 -74,32 -16,0 -41,-2 -64,-3 -1,21 -9,40 -25,52l-2 9 -22 24 -10 2c-13,19 -27,36 -44,50 -6,20 -17,38 -33,51l0 1 -9 20 -8 8c-21,21 -47,90 -57,120l-6 17 -29 21 -70 0c-2,5 -4,10 -6,14 20,9 34,26 34,52 0,15 -4,26 -11,36l7 11 0 16c0,3 0,5 0,7l28 0 3 -1c15,-21 41,-32 68,-32 37,0 77,-17 120,-25l33 -23 21 2c46,6 244,-15 296,-32l2 -3 24 -8 12 1c29,3 93,-25 137,-25l3 0 39 3 39 -21 16 -4 43 4 25 -13 12 -3 7 0c43,0 87,-12 130,-12 124,0 247,-25 372,-25 40,0 88,5 128,10 53,7 99,40 99,114 0,63 -114,66 -159,65 -22,0 -69,38 -92,40l51 44c39,9 177,-10 212,-10 26,0 116,1 143,-2l14 -2 39 30 42 15c8,0 17,0 26,1l4 -6 21 0 63 9 12 -41 -59 -50c-55,-2 -137,-31 -137,-99 0,-47 70,-71 115,-87l19 -32 21 -14 44 -6c3,-3 6,-7 10,-10 20,-18 33,-18 52,-21l4 -9 10 -8c25,-18 57,-32 88,-32l4 0 36 4c17,-5 39,-9 55,-14l0 -8 33 -32 15 0 23 -17 108 0 7 8c12,-2 27,-6 37,-9l15 -15 88 0 28 -12c2,-4 4,-8 7,-12 4,-39 36,-70 73,-85l15 -44 7 -11 59 -59 14 -38 28 -20 2 0c5,-9 12,-17 20,-23l16 -25 14 -12 3 -1c19,-16 50,-64 65,-84l8 -11 15 -7c6,-11 11,-30 13,-39l4 -20 30 -25 1 0c9,-28 25,-51 50,-61l16 -21 2 -2 0 -4 2 -10c15,-36 119,-197 152,-216l1 0c14,-12 26,-21 42,-25 4,-29 12,-60 34,-76 26,-42 64,-84 102,-114 3,-7 7,-13 12,-20l5 -13 6 -8c19,-22 38,-42 59,-60 1,-4 3,-8 4,-12 16,-36 48,-52 59,-70l0 -28 48 -33 1 1c25,-44 60,-68 94,-103 3,-8 7,-15 13,-21 5,-25 20,-46 46,-52l5 -5c5,-20 17,-36 36,-43 5,-3 10,-6 15,-9l2 -26 18 -25 20 -9 -12 -34 33 -47 21 0 4 -12 45 -6 0 -4 30 -31c9,-16 24,-27 43,-32l1 -2 6 -7c38,-44 46,-159 107,-177 22,-25 40,-54 72,-66l78 -52 23 -12 8 0c0,-3 0,-6 0,-7l0 -40 33 -33 23 0c8,0 27,-2 39,-5 3,-13 9,-25 18,-34 25,-26 46,-23 71,-25l30 -24 9 2 46 -40 19 -7 20 0 4 -6 5 -2c13,-29 46,-42 78,-51 9,-39 47,-59 88,-59l46 3 43 19 28 -19c9,-14 20,-40 25,-52l5 -8 12 -12 6 -3c20,-13 30,-24 56,-24 34,0 44,47 44,80 0,157 -71,184 81,96 12,-25 49,-59 67,-81l70 -129c27,-23 56,-37 76,-14 14,-5 25,-7 40,-7 34,0 55,25 57,53l1 0c2,-30 9,-56 33,-72 0,-14 -3,-33 82,-86l9 -3 51 -11 29 24 10 -6c24,-16 45,-30 76,-30l23 0 33 32 0 23c0,16 -99,272 -112,285l2 6 0 8c0,202 -120,199 -127,378l6 6 4 37 -31 54 0 54 -14 18c-6,24 -5,45 -24,66 -1,3 -1,7 -1,9l3 13 -5 25 -9 10c-9,11 -21,34 -21,49l0 27 -33 26 0 21 -4 14 -16 29 4 56 -11 24 -19 17 -11 71 -14 20 -11 6c-4,3 -9,6 -13,10l16 54 -27 18c-1,12 1,37 1,47l0 12 -10 22 -43 35 -3 2c-7,18 -11,57 -11,71l0 16 -17 26 0 1c-3,20 0,59 0,74l0 43 -41 11c-2,9 -5,18 -8,27l6 9 2 28 -21 51 -1 0 -2 15 19 19 0 23c0,54 7,147 -37,187l0 19c141,4 -35,-44 216,-44l155 -14 128 14c23,0 65,-3 83,8 88,1 -19,-3 68,1l53 3 1 104 -52 4c-59,4 77,27 18,31 -14,12 -32,18 -53,18 -13,0 -27,-2 -40,-6 -11,14 -28,23 -52,23 -33,0 -62,-9 -94,-15l-18 11 -14 4 -8 0c-34,0 -72,10 -108,17l-47 6c-290,164 155,85 240,81l29 20 15 38 -33 48 -29 0c-54,0 -90,55 -145,55l-20 0 -9 -7 -7 7 -23 0c-19,0 -39,1 -58,3 3,7 36,2 36,11l0 17c-39,58 -82,60 -148,64l-29 30 -23 0c-10,0 -33,-3 -49,-3l0 4c-118,118 1,74 -105,144 -11,0 -65,42 -73,49 -3,3 -5,13 -5,22 17,32 15,68 15,105l0 13 -11 23 -14 11 14 53 -11 14c4,9 6,18 6,28 0,21 -7,35 -19,49l-6 16 -8 7c-1,2 -1,6 -1,8l0 23 -17 16c0,1 0,2 0,2l0 23c-52,65 33,74 -55,165l-2 12 -31 27 -11 0c-2,4 -4,8 -7,12 -2,19 -7,42 -10,58 -4,18 -8,42 -17,63l1 1 13 31 -3 17c-1,4 -1,9 -1,14 11,-15 28,-26 51,-26 17,0 29,6 38,14 55,7 37,12 102,-5l51 -4 13 -13 22 0c16,-3 66,24 86,23l19 -9 12 -17 24 -12 7 1c9,-3 15,-7 23,-11 20,-14 42,-20 66,-26l5 -1 12 -1 1 -2 31 -16 10 1 15 -6c11,-18 29,-31 52,-31 2,0 4,0 6,0 47,-20 136,-12 189,-25l9 -12 19 -4c98,-25 102,-45 206,-67l7 -1 11 0 2 -2 30 -16 -212 -5 -115 -63 9 -4 5 -2c13,-4 33,-6 48,-10l79 -32 154 -31 7 -7 4 -3c32,-24 55,-16 80,-6 12,-50 9,-66 98,-62 28,-19 53,-22 82,-33 45,-59 88,-8 108,-18l24 -27 96 -14 33 -29 15 -5 0 0 23 -17 25 -2 13 -21 18 -12 11 -3c42,-9 91,-26 120,-60l5 -7 14 -9 9 -3c16,-4 34,-11 50,-19l14 -20 17 -6c15,-5 31,-16 41,-28l10 -13 31 -10 9 2c13,-2 41,-12 55,-19l20 -27 14 -11 8 -3c11,-3 27,-16 37,-27l8 -40 7 -8c-11,-12 43,12 24,-32 105,-78 48,-92 88,-94 70,-22 43,-74 90,-119 4,-6 9,-11 13,-16l8 -9 22 -10 -3 -40 2 -2c0,-3 1,-7 1,-11l0 -13c-9,-19 -22,-38 -33,-57 -22,-8 -45,-18 -64,-20l-6 -1 -10 -3 -5 -3c-105,-61 -217,-94 -317,-164l-32 0 -16 -5 -7 -5c-5,-3 -22,-7 -28,-9l-10 -2 -16 -11 -16 -23 -53 -45 -2 -24 -11 7 -21 5 -11 -2c-27,-6 -57,-22 -83,-28l-9 3 -38 -16 -11 -21 -9 -2 -5 -2c-40,-14 -65,-38 -100,-58l-24 -13 -6 -44c-4,-1 -8,-1 -12,-2 -2,1 -5,1 -7,2l-14 7 -31 -3 -12 -9c-12,-9 -30,-27 -42,-33l-6 -2 -11 -7 -6 5 -42 -5 -44 -49 -8 3 -24 -32c-22,-30 -63,-54 -90,-85l-1 -2 -3 -4 -1 -2c-12,-20 -21,-47 -24,-73l-13 -5 -19 -24 -2 -15c-3,-21 -13,-43 -25,-60l-3 -6 -5 -13 -1 -15 -25 -24 0 -63 3 -13 3 -6c12,-25 46,-75 41,-104l-2 -9 3 -19 19 -34c3,-21 14,-42 22,-60l5 -9 15 -14 15 -5 6 -20 27 -18 10 -22 11 -14 8 -4c13,-8 30,-19 42,-31l17 -51 16 -17 70 -31c28,-43 59,-85 110,-97 29,-32 63,-53 102,-71l0 -2 24 -14c64,-39 128,-79 195,-114l5 -3 10 -3 38 -4 38 -25 23 -1c5,-2 12,-5 17,-7l20 -20 15 -8 9 -2c120,-22 54,-52 163,-105l6 -3 12 -2 67 -35 131 -77 24 -6 12 2c7,2 28,-6 35,-9l7 -3 16 -2 31 6 26 -19 41 3 13 13c27,-10 54,-26 88,-31 247,-42 499,-38 747,-63l20 -2 16 11c72,-8 145,-6 217,-17l3 0 7 -1 223 21c56,0 112,-4 169,0l31 3 28 57 -17 142 -25 14 -14 0c-5,0 -19,-2 -27,-1l-4 4 -19 9 -10 0c-79,4 -155,-4 -227,35l-8 5 -19 3 -4 -1 -1 1 -50 30 -37 -4 -7 -7c-4,3 -8,5 -11,8l11 11 0 3 28 16 2 62 -70 47 -5 1 0 1 10 4 4 3c13,10 24,18 35,27l27 -6 26 8 51 51 0 13 76 22 8 73 -64 36 -7 3 -4 1c-22,6 -46,10 -68,10 -34,0 -66,8 -100,15l5 20 -70 40 -9 3 -4 1c-53,9 -108,13 -161,13 -54,0 -211,-33 -290,-30l-29 19 -11 4 -43 7 -13 12 -23 9 -45 -4 -27 9 -10 2 -5 0c-41,0 -83,-15 -128,-15 -15,0 -30,-2 -45,-5l-8 39 -46 4 -32 0c-15,0 -30,0 -45,1l-77 46c-61,24 -142,59 -168,120 -32,31 -16,14 -2,35l13 0 23 11 90 61c16,10 34,18 51,24l8 2 4 3 27 -16 72 36 16 20 4 23 28 10 35 -11 20 2 64 28 18 32 -1 5 10 4 2 2 20 -9 32 0 22 10 37 43 6 12 2 6c18,14 30,10 59,13l22 1 29 32 0 17 37 0 28 19 11 26c4,0 7,1 11,1l15 0 25 14 17 29 28 -3 31 19 7 17c5,12 14,27 23,38l41 18 8 6 3 3c18,18 35,33 50,47 16,14 30,27 43,41 14,14 26,29 37,46 12,18 22,39 31,64l0 1 1 1 0 0 0 1 53 67 17 22 12 66 -1 13 -8 27 7 -3 27 27c5,6 11,11 16,17l17 5 26 -14 88 -22 9 1c16,3 67,-2 82,-9l7 -5 18 -4 9 2c15,1 57,6 70,-3l6 -5 15 -5 49 -3c18,-24 35,-72 44,-98l5 -17 23 -16c2,-9 2,-22 2,-29l0 -23 20 -19c3,-15 11,-28 24,-36l14 -22 5 -6 0 -4 2 -10 25 -63 11 -7c6,-13 14,-24 26,-31l0 0c5,-38 27,-68 50,-98 8,-11 23,-28 30,-42l5 -51 12 -10c2,-20 9,-38 23,-50 1,-3 3,-5 4,-8 4,-9 19,-28 21,-35l0 -7 4 -14 44 -75c7,-38 32,-67 32,-79l0 -23 32 -33 7 0c3,-7 5,-13 8,-20 3,-13 9,-24 18,-35l1 -4 2 -6c32,-62 61,-125 101,-183l8 -11 8 -5c1,-1 1,-2 1,-3 5,-24 12,-50 28,-66l-17 -62 56 -46 8 4 10 -10 20 0c13,-4 20,-9 29,-12l0 0c8,-31 31,-50 63,-54 9,-18 19,-31 19,-38l0 -23 20 -21c0,-31 2,-61 34,-82l6 -4 10 -3c11,-26 21,-50 44,-62l22 -29 23 -11 13 0c35,0 69,16 75,51 3,1 6,1 9,2 6,-9 14,-17 24,-23l6 -5 16 -4 45 0 0 -8 49 -33 27 11c1,0 1,1 2,1l21 -22 11 0 3 -8 60 -14 13 13c9,-12 22,-20 45,-20 50,0 59,43 60,80 6,7 20,19 27,26 13,15 23,31 29,49 3,1 6,3 9,4l16 0 31 25 7 38 30 19 13 37 -21 57 1 2 0 8 14 9 5 53 -4 4 -19 117 -17 14 -7 19 -21 24c-1,6 -2,11 -4,16 -3,6 -8,16 -14,25 22,9 38,26 38,57 0,15 -4,25 -11,34 3,2 6,5 9,8 19,12 31,32 31,54 0,79 -45,119 -65,184l-1 2 -35 100 -13 10c-8,18 -22,31 -41,37l-8 6c2,7 4,16 4,26l0 22 -28 29c-3,8 -5,19 -5,24l0 23 -21 20c-4,15 -11,27 -23,35 0,30 -11,61 -34,78l-3 5c-3,40 -23,72 -58,85 0,3 0,6 0,8 0,1 0,2 0,3 19,-5 37,-11 53,-17l8 -2 16 -1 18 5 17 -10 17 1c98,8 207,-24 310,-29l51 -43 18 -7 211 -4c22,0 83,2 111,-5l20 -26 26 -7c4,-12 11,-23 20,-32 5,-17 13,-33 22,-47l20 -113 7 -15 45 -48c2,-7 5,-13 9,-21 0,-35 9,-65 35,-82 -1,-1 -1,-1 -1,-2 -2,-30 5,-62 26,-79l36 -72 24 -14c3,-3 6,-6 10,-8l34 -85c-2,-39 23,-53 45,-72l1 -14 8 -11c13,-22 25,-54 42,-80 -1,-12 -1,-25 -1,-37l0 -11 1 -2 -3 -38 24 -18c9,-7 17,-17 22,-27l7 -14 21 -13c10,-21 27,-36 55,-37 8,-65 19,-123 81,-166l5 -3 2 -1c135,-176 169,-183 212,-279l25 -36c7,-18 21,-36 35,-49 4,-4 9,-9 14,-13l6 -23 5 -10 28 -37c2,-22 33,-62 72,-106 7,-39 86,-167 110,-185l34 -26 67 53 -17 39c-1,1 -1,2 -2,4l21 7 -3 23 6 9 -11 23 -9 59 -16 22 -18 9 0 5 -13 24 2 6c-30,48 -1,47 23,35l2 2c21,14 36,31 36,59 0,15 -6,29 -15,40 -2,7 -6,14 -9,21 4,9 7,20 7,31l0 3 -1 7 -1 6c0,4 0,8 0,13 0,30 -10,40 -19,58l0 1 0 27 -41 73c-1,18 -8,36 -17,53 5,9 8,19 8,31 0,14 -4,25 -10,35l3 21 -1 2c1,0 3,0 4,0 6,-7 13,-13 20,-18 8,-9 17,-15 26,-23 -1,-18 4,-34 17,-48l72 -140 5 -7 3 -3c17,-17 34,-21 56,-21 37,0 60,29 60,64 -9,238 41,225 41,320 0,19 -45,97 -57,108l-60 150 -4 7c9,10 6,51 6,67 0,20 -4,9 -20,22 -9,24 -43,93 -43,107l0 23 -20 19c-4,17 -49,143 -64,151l-1 1c-3,13 -10,20 -13,35 0,25 -4,52 -17,71l0 21 -81 163c16,-2 33,-4 48,-9l27 -8 2 2 1 -1 137 -45 6 -8 31 -11 41 9c43,-9 69,-64 113,-62l2 -4 24 -11 102 0 54 -26 38 -10c40,-13 22,-28 68,-28 8,-1 17,-2 25,-3 26,-1 51,5 69,19l43 0 20 9 20 20 -16 24c-6,12 -144,159 -174,161 -40,21 22,57 -10,62 -32,5 -74,12 -110,15 -11,7 -24,12 -37,15 -40,28 -113,34 -151,42 0,0 0,1 0,1 13,1 24,6 33,13l4 -2 10 -2c53,-11 118,-9 170,-24l9 -10 17 -8 54 -6 13 3 13 -15 27 -10 4 1 3 -4 23 0c25,0 53,-12 83,-16l3 -4 10 -10 11 -7c5,-12 11,-25 18,-37l6 -37 1 -17 29 -32c2,-15 8,-29 16,-41 3,-16 9,-28 20,-44l1 -6 8 -15 6 -6c1,-1 1,-5 1,-7l0 -8 5 -16 4 -7c2,-2 3,-8 3,-11l0 -14 14 -24 6 -5c2,-4 3,-9 4,-12l3 -9 12 -15 20 -13c8,-34 28,-68 56,-90 5,-12 10,-23 17,-34 -11,-4 -5,-11 -13,-18l6 -49 -15 -4 -15 4 -17 -10c-58,-13 -29,-7 -87,-27l-1 -22c-9,1 -18,3 -23,6l-11 11 -34 4c-13,9 -7,-76 -26,-76 -20,0 -42,-11 -56,-25l-20 -20 -7 -49 -40 -25 -195 1 -23 -83c27,-6 63,-64 82,-70l5 -6 43 -6 9 -13 33 4c21,2 85,-16 104,-27l6 -4 14 -3 3 0 27 -14 13 -3 6 0c81,0 8,-17 91,-20 35,-17 82,-19 93,-35l17 -5 9 0c12,0 35,2 51,1l9 -12 19 -5c72,-26 -176,-55 -76,-67 5,-8 64,-24 68,-32 18,-70 123,-61 126,-98l7 -15c83,-75 75,-28 176,-118l2 -2 3 -2 1 -1c22,-14 72,-34 98,-34l27 0 11 26 1 33c0,51 33,41 36,72 -4,24 -23,33 -2,45l23 1 5 2 0 1c6,-5 11,-10 16,-15l25 -42c17,-23 24,-42 47,-59l16 -12 41 3 9 8c3,-1 6,-2 9,-3l28 -9 46 38 -2 28 52 13 1 2 12 -14 22 -10 12 0c35,0 68,27 68,64l0 7 -4 15 -4 6c-17,28 37,-49 20,-21 27,3 59,7 79,5l1 -1 38 -31 18 -6 9 0c27,0 104,7 132,-1l3 -3 23 -12 249 -44c159,0 168,13 326,13l13 0 13 7 172 11c1,0 4,1 5,1 230,-32 720,-10 736,2l-94 149 8 3c2,-1 3,-1 5,-1l6 -11 23 -15 13 -1c25,-3 92,1 113,-10l6 -4 13 -3 89 0c54,-26 148,-61 190,-63 58,-3 116,-5 174,-5 11,0 20,2 29,4l9 0c21,0 41,0 62,3l12 -12 24 -9 12 2c151,15 -13,-6 139,4 23,-16 54,-19 83,-14 12,-11 27,-18 46,-18 10,0 20,1 29,3 24,-3 47,4 65,18 10,-5 23,-8 40,-8 24,0 47,5 67,18l80 5 11 -13 22 -10 13 0c9,0 19,1 28,3l3 -3 11 -9 20 -9c12,-24 34,-41 63,-41 36,0 91,21 115,45l7 7 8 18 92 3c5,3 9,6 12,10 36,-47 120,50 144,4 5,-21 47,-32 65,-43l6 -9c6,-33 123,-26 153,-42l32 -16 74 132 -8 31c0,3 0,7 0,10 1,26 54,29 39,45 -3,22 64,44 47,58 0,1 0,2 -1,3 42,7 67,-24 67,18 0,36 36,44 29,77 4,40 28,32 56,20 29,18 49,21 50,23 12,3 31,5 39,7l22 4 25 35 0 2c20,11 61,22 83,29 52,1 91,51 131,63l8 0 22 10 54 62 52 22 9 6 33 33c23,11 44,28 53,30l27 0 27 27 17 8 31 34c36,15 64,50 83,83l5 8c11,8 19,17 25,29l14 7 8 5 3 3c25,26 44,58 60,90l3 6 3 12 0 7c0,20 -6,40 -19,53l4 9 5 28c31,21 48,60 48,98 0,2 0,6 0,9 27,16 48,25 53,58 21,28 35,54 35,92 0,25 0,32 15,52l5 7 5 17 -9 312 -18 18c-1,5 -2,11 -2,15 -2,10 -4,21 -7,32l13 14 -3 25c-3,33 -18,77 -28,110 -8,24 -23,67 -26,89 0,26 -7,52 -23,69l-7 86 -7 17 -6 7c-40,43 -61,92 -102,136 -2,7 -6,14 -9,22l0 20 -33 33 -3 0 -37 78 -2 4c-8,13 -34,37 -39,46 -1,17 -7,32 -17,44 1,28 -19,54 -54,58l-32 21c-12,37 -35,74 -71,87 -15,20 -39,31 -66,34l-11 8c-20,39 -46,37 -68,54l0 8 -18 25 -20 8c-10,29 -25,52 -66,52l-2 0 -2 0 -33 38c-9,18 -25,32 -43,39 -13,13 -30,20 -49,23l-60 52 -18 7 -13 21 -51 0 -29 21 -18 0c-4,0 -10,3 -17,6 -7,10 -18,18 -30,24 -9,28 -25,41 -48,59l0 14 -59 32 -7 -5c-19,14 -44,21 -68,21 -12,12 -26,21 -47,21 -11,0 -20,-3 -29,-7 -15,30 -47,53 -75,62l-7 3 -14 1 -13 -3c-10,16 -25,30 -43,38l-5 3 -13 3 -6 0c-30,0 -45,-11 -65,-25l-24 19 -46 -6 -5 -6c-16,12 -34,22 -51,32l-1 0c-6,9 -15,16 -25,20 -14,15 -33,25 -55,25 -6,0 -11,-1 -16,-2l0 1 -14 7c-8,46 -61,82 -106,86 -29,15 -63,29 -95,29 -18,0 -35,-6 -47,-17 -1,0 -1,0 -2,0l-89 4c-12,6 -27,9 -43,9 -12,6 -21,12 -34,15 -7,8 -17,15 -29,19l-3 4c-18,28 -37,56 -61,80l-8 7 -20 9 -11 0c-35,0 -71,3 -106,4 -7,8 -17,13 -29,16l-22 22 -23 0c-25,0 -30,-7 -58,-6l-13 13 -11 0 -33 54 41 55 -33 28 -15 -4c-54,0 -5,15 -88,2l-12 9 -26 1 0 1 -5 5c-25,31 -25,-78 -50,-33l1 14 -69 55 -3 6c-20,32 -38,74 -54,109l-2 4 -100 54c-72,103 17,83 -57,143l-26 67 -7 10 -2 2c-7,11 -9,20 -15,29 -13,47 27,147 -27,147 -39,0 -251,-46 -251,-85 0,-22 8,-32 18,-49 39,-100 63,-187 78,-207 -1,-13 79,-24 33,-143l5 -50c-2,4 -31,-3 -33,1 2,17 -20,-10 -33,3 -3,3 -6,5 -8,8 -7,6 -13,11 -19,17 7,10 -21,23 -21,40 0,52 -34,83 -72,128 -4,35 -34,58 -68,58 -70,-10 -71,-42 -68,-80l0 -5 2 -9 -9 -24 -9 -45 17 -21c12,-14 14,-42 33,-66l1 -1 2 -2c4,-5 10,-12 15,-19l-6 -11 17 -28c10,-16 20,-31 32,-45 -38,-49 -58,35 -150,78l-11 -3 -3 5 -36 -1 -30 17 -14 4 -8 0c-8,0 -16,-1 -24,-4 -11,5 -25,8 -38,8 -27,0 -52,-4 -77,-11 -40,10 -80,17 -121,21 -11,12 -25,19 -45,19 -7,0 -14,-1 -19,-3 -22,9 -46,16 -65,16 -21,0 -43,-6 -59,-18l-17 8 -18 2 -10 -2c-43,-9 -83,12 -123,27l-9 3 -18 1 -15 -4c-14,22 -41,33 -68,31 -10,4 -20,6 -31,6 -23,0 -45,-3 -67,-10 -57,11 -113,23 -172,21 -15,10 -35,14 -54,14 -14,0 -30,-2 -45,-6 -12,2 -23,4 -36,6l-16 12 -33 2 -50 -28 -9 -9 -1 -2c-40,1 -84,11 -125,16l-14 14 -23 0c-46,0 -90,4 -132,-20l-13 -8 -8 -14c-11,2 -23,4 -35,4l-4 0 -33 -3 -13 13 -26 8 -61 -11 -3 1 -2 0 -28 19 -20 -2c-36,-4 -77,4 -114,8l-2 0 -3 0 -7 7 -92 -10 -27 -54 42 -74 42 -13 6 3 17 -9 16 2c58,7 117,-18 181,-18l1 0 25 -9 13 2c21,4 53,-1 85,-7l29 -46 36 -13 17 6 19 -11 15 0c14,0 38,5 55,5l9 -9 16 -3c53,-12 103,-17 156,-18l0 0 21 -9 11 0c29,0 54,-5 79,-12l-18 -40 27 -70 28 -20 24 0c17,-9 34,-16 52,-19l2 -2 5 -2c-3,0 -7,0 -10,0 -3,0 -7,-1 -10,-1l-7 4 -31 1 -11 -5c-28,8 -64,3 -94,-6 -47,23 -113,10 -113,-49 0,-56 64,-63 105,-69 17,-3 37,-6 56,-7l23 -20 24 -6 11 2c23,1 67,-13 98,-14 8,-4 17,-7 26,-9 -5,-8 -8,-18 -8,-31 0,-29 18,-49 42,-57l19 -11 32 0c16,-11 35,-16 56,-17l165 -7 12 -1c7,-3 14,-6 21,-7l20 -17 12 -6 6 -2c27,-6 121,-37 148,-37 15,0 29,-3 44,-5l5 -4c12,-12 41,-20 57,-29l9 -22 37 0c1,0 2,0 3,0l102 17 59 -5c18,-9 89,-17 106,-17l42 -37 43 -12c7,6 26,-14 57,-2 20,-12 14,23 41,23l7 0c95,23 193,-111 265,-128 17,-14 -44,-72 -28,-74 4,-15 11,-28 20,-38 -7,-10 -11,-22 -11,-38 0,-36 10,-50 25,-66l-9 -15 0 -15c0,-34 18,-52 40,-69l1 -6 -8 -8 -9 -25 2 -13c4,-33 17,-64 34,-92 6,-12 17,-27 24,-40l0 -3 12 -24 20 -15 -4 -7 -4 -23 3 -11c9,-36 35,-79 73,-90 17,-60 34,-133 61,-174 8,-39 34,-57 36,-76l1 -9 8 -17 3 -3c18,-28 40,-78 70,-107 6,-30 6,-67 20,-96l4 -8 4 -4c8,-14 21,-49 24,-63l0 -9 11 -23 36 -27c3,-7 8,-12 13,-17l1 -6 28 -46c4,-24 17,-46 39,-56l-15 -61 21 -19c0,-2 0,-4 1,-6 6,-37 17,-76 53,-87 6,-5 12,-10 17,-15 5,-15 13,-28 25,-39 6,-19 13,-39 13,-53l0 -9 6 -18 53 -68 0 -43 10 -22 34 -29c9,-21 17,-42 32,-59 3,-9 8,-17 14,-25 5,-33 39,-135 63,-155 17,-50 -43,-28 -29,-69l-27 10 -29 -37c-33,-6 -65,-9 -99,-10 -1,0 -3,1 -4,2 -30,19 -54,8 -78,-5l-15 6c-11,17 -28,30 -53,30 -27,0 -42,-12 -58,-27 -8,-2 -16,-5 -22,-7l-2 3 -25 14 -76 0 -9 -4 0 0 -53 -3c-11,7 -25,11 -40,11 -45,0 -90,-8 -135,-14l-11 13 -26 11 -70 -9c-41,8 -211,62 -211,15 0,-17 375,-228 261,-224 -11,-5 -77,-27 -95,-19 -102,19 -166,27 -213,49 -104,47 -65,2 -115,19l-83 59c-129,0 6,-2 -141,24 -11,13 -51,21 -73,21 -15,0 -27,-5 -37,-13 -5,3 -11,6 -13,7l-6 3 -12 3 -72 0c-14,10 -51,-32 -67,-32 -12,0 -23,-4 -31,-9 -17,2 -38,1 -54,2l-2 13 -31 27 -21 0c-40,0 -80,12 -121,16l-24 19 -42 -3 -5 -5c-5,2 -11,2 -17,2 -11,0 -23,-3 -34,-8 -13,5 -28,10 -38,15l-23 16 -52 -17 -100 14 -12 -10c-11,5 -23,11 -28,15l-7 4 -16 5 -8 0c-36,0 -67,-17 -96,-17 -49,0 -101,32 -160,37l-8 5c-6,7 -14,13 -23,18l1 10 -13 17c-24,32 -28,116 -47,151l-11 20 -12 4c-3,23 -19,38 -38,45l-49 73 0 2c87,-5 175,-18 264,-17 26,-15 55,-27 83,-35l7 -2 13 -1 6 2c24,4 40,16 53,32l41 0 0 0 26 -17 16 0c16,0 31,3 45,10l85 -34 36 27c17,1 34,1 50,6 22,-14 52,-11 76,5 25,-1 50,7 67,23 37,7 95,8 134,18 67,-1 234,-31 287,32 30,-2 60,-5 89,-11l26 -4 16 14c8,-3 17,-6 23,-9l27 -14 53 33 0 16c3,4 6,8 9,13 52,-1 104,9 104,69l-159 28 -2 3 2 3 -15 61 -30 24 -35 0c0,1 0,2 0,3 0,21 -9,36 -22,48 -9,24 -29,41 -58,41 -7,0 -13,-1 -19,-3 -17,14 -55,-20 -79,-20 -136,-19 -104,-20 -239,-11 -64,47 -121,58 -92,106l209 6c2,0 44,20 46,20 39,0 71,2 71,41 0,64 -29,57 -90,57 -2,0 -4,0 -6,0l-20 17 -20 0c-40,0 -79,2 -119,6 2,5 3,12 3,18 0,43 -28,77 -72,77l-2 0 -4 -1 -8 -1 -5 6 -21 8 -71 0 -88 40c-270,0 -62,48 -215,17l-73 32 -9 0c-14,11 -27,17 -47,17 -27,0 -43,-7 -58,-19 -17,7 -34,11 -53,20l-2 2 -24 13 -57 0 -8 -4 -124 48 -32 -6 -1 0c-7,3 -16,4 -26,4l-9 0 -15 -5 -7 -4c-12,-8 -24,-15 -34,-24l-26 0 -18 1c-4,26 -23,43 -47,50 -5,9 -12,16 -21,22 -17,21 -45,31 -74,31 -16,0 -41,-2 -64,-2 -1,21 -9,40 -25,51l-2 9 -22 25 -10 2c-13,19 -27,36 -44,50 -6,20 -17,38 -33,51l0 0 -9 21 -8 7c-21,22 -47,91 -57,121l-6 17 121 42 -42 52c148,124 267,0 415,-49l2 -2 24 -8 12 1c29,3 93,-26 137,-26l3 1 39 3 39 -22 16 -3 43 4 25 -13 12 -3 7 0c43,0 87,-13 130,-13 124,0 -13,4 112,4 40,0 87,5 127,11 54,6 158,-10 197,64 -37,60 -95,91 -140,90 -23,0 -64,32 -86,34l22 17c39,9 159,-28 193,-28 27,0 54,-4 81,-8l14 -2 27 11 43 53c26,1 58,2 86,8l0 -4 31 6 23 0c43,0 36,3 60,49 0,6 29,2 27,7 17,13 28,32 28,61l0 27c-61,62 -48,11 -164,70l-41 78c-28,6 -8,36 -28,38 -52,6 -72,39 -125,39 -77,0 -39,20 -118,36l-45 -2c-13,8 -275,94 -279,94l-39 0 -39 0 -9 13 -30 0c-36,0 -72,21 -113,21 -36,0 -31,-25 -66,-23l-84 56 -14 4 -59 0c-1,1 -121,28 -272,131l-27 -9c-12,-4 -29,-12 -37,-14 -7,0 -26,0 -38,2l-1 5 -30 22 -19 0c-11,0 -31,-2 -46,-1l-5 8 -16 6c-51,21 -111,46 -167,46 -9,0 -18,-1 -26,-3l0 2 -52 13 -6 1 -4 0c-14,0 -27,-4 -38,-10 -37,51 65,63 14,81l-40 2c-2,0 -3,1 -5,2l-76 66c-96,-1 -129,37 -152,31l-19 14c-247,0 14,-172 -283,-38 -2,7 -5,13 -9,19l4 17 -10 30 -70 59 -4 1 -40 37 -7 18 -14 15 -4 2c-18,14 -29,25 -55,25 -23,0 -40,-9 -56,-24l-9 -10 -52 26 -44 -14 -25 -50 1 -27 7 -12c16,-29 28,-61 36,-94 0,0 0,0 0,0l-27 -7 -2 4 -7 9 -5 4 1 2 -13 18 -7 6 0 1 -3 14 -37 54 -36 8c-83,39 15,-56 -45,65l-3 5 -6 8 -68 61c-166,-74 -18,-183 -13,-219 1,-3 1,-6 2,-8 18,-69 5,-42 -15,-80l-19 -65 -2 -8 -26 -26 0 -7c-48,-10 -35,29 -68,62 -28,2 -4,31 -43,26l-19 21c-116,-19 -69,-122 -76,-123 -43,-116 -33,-152 150,-249 18,-8 28,-21 42,-27l20 -8c86,-136 85,-90 154,-246 9,-52 35,-135 81,-173 10,-51 36,-93 39,-140l1 -13 13 -22 54 -36 4 -19 -5 -8 0 -15c0,-40 26,-67 61,-75 22,-29 55,-77 56,-97l0 -9 6 -17 21 -28c-6,-10 -10,-20 -10,-38 0,-35 19,-53 44,-61 2,-5 5,-9 7,-13l-35 1 -15 -2c-20,-3 -25,-65 -48,-65 -5,0 -10,-1 -16,-1l-33 19 -21 1c-131,-14 -86,52 -212,27 -33,-2 -156,92 -156,56 0,-71 204,-188 211,-199 47,-31 20,-67 -86,-50l-93 19 -8 10 -23 12 -22 0 -23 13 -39 0 -14 25c-5,19 -15,33 -15,41l0 6 -2 12 -36 75 -17 38c-14,42 -58,108 -86,137l-34 60 0 30 -9 20 -12 12c-3,9 -7,17 -13,27 -1,25 -7,46 -22,60 -4,14 -10,26 -19,37l-36 91 -15 10c-19,33 -26,99 -42,134l-29 83 -36 92 -10 11c0,1 0,1 0,2l0 8 -5 16 -4 7c-3,3 -4,11 -4,15l0 23 -27 27c-5,14 -9,36 -12,47l-5 19 -30 23 0 0c-6,14 -9,35 -9,45l-105 133c-15,3 -66,146 -81,150 -15,8 -32,11 -50,11 -19,0 -37,-5 -55,-10 -21,8 -42,15 -63,19 1,6 2,13 2,19 0,35 -24,56 -53,62 -29,18 -52,36 -90,36l-8 0 -14 -4 -6 -4c-9,13 -19,25 -27,35 -12,15 -27,34 -45,48l-14 79 -2 8 -2 4c-11,21 -54,67 -57,75 0,25 -8,49 -24,66 -2,6 -6,11 -9,18l0 11 -24 30 -61 15 -43 -33 0 -27c0,-49 17,-93 17,-138l0 -23 17 -18c8,-15 19,-47 28,-79l-9 1 -10 -7 -12 19 0 54 -32 33 -11 0 -3 17 -12 0c-9,20 -28,33 -60,33 -65,0 -89,-23 -89,-89l0 -6c-16,-25 -20,-61 -20,-93 -8,-10 -13,-23 -13,-39 0,-17 6,-32 16,-45 -4,0 -7,0 -11,0 -35,0 -60,-21 -69,-51 -6,0 -12,1 -19,1 -41,0 -76,-23 -76,-68l0 -34 5 -16 43 -63 18 -109 16 -17c20,-35 71,-166 77,-199l0 -1 1 -8 1 -4c10,-33 34,-80 62,-111l3 -42 3 -10 43 -89 0 -55 20 -29 13 -5 0 -34 13 -24 4 -3c0,0 0,-1 0,-1l0 -23 32 -32 10 0c2,-4 4,-9 4,-12l0 -5 2 -11 11 -26c2,-22 9,-42 22,-60 4,-13 10,-25 13,-34 5,-13 10,-27 17,-39 6,-29 15,-59 31,-83l0 -27 12 -23 8 -7c7,-31 -10,30 0,0l-6 -14 -2 -11 0 -6c0,-6 0,-11 2,-16 -209,37 30,33 -289,33 -131,0 -252,59 -387,66l-4 5 -21 8 -21 0 -3 5 -24 12 -27 0 -4 5 -23 12 -13 0c-7,4 -14,7 -21,10 -15,63 -53,146 -95,191l-31 84 -12 8c-3,40 -17,79 -67,79 -1,0 -2,0 -3,0l0 3c0,35 -17,49 -21,72l0 10 -9 21 -8 8c-21,21 -45,41 -76,41 -2,0 -3,0 -4,0l-1 2 10 34 -44 74c-5,20 -17,36 -34,46l2 3 0 61 -10 22 -46 40 -18 7 -10 0c-9,0 -16,-2 -23,-4l-6 13 -15 15c-3,18 -11,36 -23,49l-9 19c-4,29 -23,38 -47,52 0,1 0,1 0,2l-3 7 3 2 15 25 0 15c0,32 -13,41 -17,64l0 10 -8 20 -8 8c-22,22 -45,37 -77,37 -2,0 -4,0 -6,0l-7 5 -1 0c2,7 3,15 3,24l0 7 -4 13 -13 24 9 29 -41 71c-4,17 -13,30 -27,40l0 58 -10 23 -42 35 -19 6 -9 0c-7,0 -14,-1 -21,-3l-1 4 -13 16c-3,17 -11,33 -23,46l-12 35 -22 20 -13 2 -2 6 -40 87 -26 11 -4 8 -3 1c-7,26 -15,51 -37,62 -12,21 -33,36 -59,36 -35,0 -52,-18 -61,-42l-7 0 -17 -6 -85 -63 -7 -15c-4,11 -10,21 -17,29 -9,20 -26,35 -50,38l-1 0 -13 11 -26 9c-8,8 -18,13 -28,17l-13 23 -1 1 0 7c-62,16 -88,-1 -121,39l-3 18 -20 3c-6,30 -27,56 -27,62l0 44 -85 20 -21 -42c-13,-7 -22,-16 -27,-27 -6,8 -14,14 -23,19l0 3 -2 4c-14,42 -44,75 -78,102 -10,30 -35,53 -71,53l-15 0 -20 -8 -39 -39 -2 -27 -16 -23 14 -70 4 -9 3 -6 -3 -4c24,-53 14,-29 40,-74 -9,-26 0,-15 21,-31 11,-37 30,-101 53,-129 4,-17 9,-33 9,-47l0 -5 2 -11 2 -5c8,-20 34,-62 38,-81l0 -18 19 -23c4,-18 5,-32 13,-48 -3,-24 1,-47 13,-64 -1,-35 -1,-70 20,-99 9,-26 22,-51 39,-73 8,-29 26,-53 26,-59l0 -6 2 -12 39 -82 2 -1c6,-15 13,-35 16,-47l1 -8 2 -4c25,-73 70,-147 116,-211 0,-1 0,-1 0,-2 -3,-28 4,-55 21,-72 4,-27 10,-53 10,-78l0 -5 2 -11 3 -6c12,-30 25,-58 44,-84 8,-33 31,-59 31,-70l0 -6 159 -253c-71,-4 -95,8 -163,22l-5 17 -8 10 -26 20 -17 58 -57 66 -13 27 -11 -2c-93,-14 -57,-1 -143,34l-9 4 -4 0c-5,40 -29,76 -73,80l-21 21 -35 0 -28 19 -11 4 -30 6 -10 10 -30 25c5,69 45,55 -66,96l-20 13 -39 -4c-1,2 -2,4 -3,6l-8 26 -52 18 -25 -16c-17,5 -36,9 -55,12l-2 5 -9 11 -13 10 1 26 -65 66 -8 2 -2 6 -8 11 -6 4c-26,21 -57,36 -88,47l-11 4 -13 -2 -9 30 -49 35 -10 4 -119 28 -22 -17 0 0c-147,82 -94,-27 -204,59l-55 12 -18 18 -11 7 -57 19c-25,21 -67,-37 -101,-31l-7 7 -12 7 -7 2c-44,14 -79,31 -125,35 -33,25 -51,81 -88,102l-6 3 -14 4 -50 0 -12 5c-10,12 -25,20 -44,20l-1 2 -25 24 -64 9 -121 62 -11 4c-65,12 -87,34 -151,62 -22,9 -44,16 -68,19 -72,72 -42,64 -182,64l-3 0 -5 0 -4 -1c-11,7 -20,12 -32,15 -15,22 -123,-36 -243,24l-12 3 -54 0 -116 -19 -14 2 -31 -4c-2,1 -69,-15 -135,-14 -98,9 -49,1 -196,5l-4 243 -12 23 -4 3c1,72 -21,77 -21,149l5 87 -27 33 -53 8 -4 0 -2 0c-59,0 -73,-92 -84,-134 -7,-30 -1,-6 -1,-36 0,-16 3,-30 8,-44 -10,-24 -15,-51 -17,-79 -6,2 -12,3 -19,3 -36,0 -59,-28 -60,-62l-10 -193c0,39 -6,70 -34,94 2,55 36,186 -55,186l-23 0 -32 -33c0,-44 1,-141 -13,-175l-2 -3 -8 -15 -28 -167c-11,-7 -47,-5 -278,40 -11,9 -24,15 -38,15 -44,0 -101,-29 -101,-71 0,-40 26,-64 65,-64l82 -21c48,-30 36,-45 88,-56 -14,-51 -14,-39 -34,-47 -9,-4 -10,9 -28,-14 0,-6 -57,-23 -56,-28 -60,13 -113,44 -243,-49 0,-48 47,-63 81,-79l6 -3 12 -3 7 0c262,0 269,-73 382,-73 0,0 0,-28 0,-28l-7 -14 2 -16c30,-277 126,-403 126,-682l0 -11 9 -21 12 -12 0 -1 -4 -6 0 -16c0,-8 1,-16 2,-24 -23,3 -47,8 -71,10 -13,12 -30,19 -51,19 -22,0 -133,13 -156,17 -18,12 -40,18 -61,18 -13,0 -26,-1 -38,-5 -5,9 -12,16 -21,22 -28,21 -56,17 -88,17 -18,0 -35,-5 -51,-14l-17 14c-7,17 -74,-3 -99,-12l-1 2 -21 8 -145 -18 -21 23 -22 10 -224 223c-1,1 -1,2 -2,2 -11,36 -43,73 -77,81 -7,7 -14,14 -23,21 13,45 -13,97 -73,97 -5,0 -9,0 -13,-1l-1 1c-6,26 -18,48 -37,61 -6,22 -14,42 -14,59 0,40 -23,71 -59,82l-13 12c-8,26 -28,46 -59,46 -9,0 -16,-2 -23,-3l-42 51c-12,52 -50,97 -103,108 -1,1 -2,2 -3,3l3 6 -12 28c-10,23 -2,41 -23,68 -7,9 -16,16 -25,21 -7,18 -19,31 -38,38 -84,119 -49,27 -162,49l-16 31 -4 2 0 26 -18 27 -33 15 -33 37 -22 10 -20 0c-45,0 -85,-28 -85,-77l0 -7 4 -14 3 -6c19,-34 40,-67 62,-99 -60,3 -53,35 -151,58 -36,0 -62,-27 -67,-60 -11,6 -22,10 -34,12 -12,31 -42,48 -79,48 -51,0 -99,-10 -122,-63l-2 -5 -2 -11 0 -6c0,-30 12,-57 28,-82 7,-9 20,-26 26,-37l0 -5 8 -20 3 -3c6,-12 15,-34 18,-45l0 -6 7 -18 7 -8c44,-52 54,-133 104,-192l5 -6 4 -2c-32,7 -63,10 -85,13 -52,6 -109,11 -162,11 -77,0 -186,22 -265,38l-28 17 -15 3 -95 -3 -25 16 -40 0 -4 2c-19,18 -46,27 -72,27l-78 0 0 0 -8 13 -31 0c-36,0 -72,21 -113,21 -36,0 -70,0 -105,2l-25 15 -14 3 -58 0c-2,2 -5,3 -7,4 -23,13 -45,12 -67,11l-11 18 -25 13 -12 0c-11,4 -28,18 -43,25l-38 28 -27 -9c-12,-4 -29,-12 -37,-14 -8,0 -27,0 -38,2l-2 5 -29 22 -19 0c-11,0 -32,-2 -46,-1l-5 8 -16 6c-52,20 -111,46 -167,46 -9,0 -18,-1 -26,-3l-1 2 -51 12 -7 1 -3 0c-15,0 -28,-3 -39,-9 -36,50 -117,46 -168,64l-27 10 -13 -8c-2,0 -3,1 -5,2l-23 17 -37 -1 -15 -11c-4,-3 -14,-10 -21,-13 -13,20 -10,58 -62,58 -6,0 -11,-1 -17,-2l-19 15 -19 0c-134,32 -141,52 -177,106l0 0 -63 45 -14 5 -8 23 -17 10c-76,48 -69,-5 -130,56 -3,7 -6,13 -10,19l4 17 -10 30 -70 59 -3 1 -41 37 -7 18 -14 15 -4 2c-18,14 -29,25 -55,25 -23,0 -40,-8 -56,-24l-9 -10 -52 26 -104 114 -5 -56 1 -27 6 -12c72,-130 -46,-106 -69,-18l-48 34 -57 -21c6,-36 42,-34 24,-88 -40,1 -57,49 -81,76 -2,48 -23,89 -36,113l-2 5 -6 8 -69 61 -65 -29 0 -81 8 -20 13 -13 0 -1c11,-72 143,-263 27,-362l-2 -8 -26 -26 0 -6 -39 -9 -4 2 -23 23 -29 8 -65 -17 -2 1 -70 -10 -19 7 -14 1 -7 -1c-49,-9 -75,-23 -75,-80l0 -23 1 -1 -37 0 -20 18 -24 -11 -8 6 -40 -11 0 24 -43 33 -40 -10 -15 9 -38 0c-32,20 -75,21 -112,22 -107,2 -115,1 -192,62l-74 38c-119,33 -126,41 -246,66 -101,21 -237,51 -343,55 -37,23 -124,87 -159,90 -36,4 -75,6 -111,7l-18 19 -62 5c-19,11 -37,18 -60,18 -16,0 -27,12 -38,3 -11,6 -41,13 -52,17 -10,16 -39,-16 -55,-6 -124,84 -52,5 -149,91 -11,31 -25,36 -48,50 -105,219 14,-23 -94,194l-7 14 -27 16 -84 0 -33 -40 2 -11c12,-67 12,-56 17,-83 23,-47 23,-81 40,-142 -24,23 -20,-18 -60,-18l-38 55c-25,-3 -26,50 -41,85l-7 15 -28 17 -62 1c-16,-20 -19,-44 -52,-66l-60 -23c-186,-21 37,-180 -76,-284l-8 -8 -10 -21 0 -12c0,-31 14,-20 46,-87l-56 -229 255 -130 36 -169zm8776 -2355l-102 181 -119 102c-7,19 -118,147 -137,156 -19,23 -71,63 -101,63l-29 103 -65 37c-94,111 1,74 -9,80 0,1 -35,65 -36,65 104,-42 218,24 243,19 327,-34 238,-50 286,-56l107 -48 161 -340c5,-28 103,-427 19,-394 -4,2 -121,221 -90,110 57,-209 -89,20 -94,20 -7,0 -38,-103 -34,-98zm13657 148c-25,-9 -32,-29 -49,-48l-12 0 -21 -21 -4 0 -27 -27c-9,-4 -17,-9 -23,-16l-100 -31c-49,-17 -170,-26 -218,-74 -12,11 -25,21 -41,27l-6 2 -7 1c-4,38 -16,77 -46,91 -6,27 -17,50 -37,64 -5,23 -13,48 -26,69 -3,14 -8,22 -10,35 0,26 -27,60 -42,85l0 11 -34 30c-5,11 -13,20 -23,26 -1,2 -2,3 -2,4l12 13 -8 54 -33 19 0 29 -3 13c-62,113 -88,364 -148,466l-19 11 -11 60 -18 22 -30 12c-6,26 -14,56 -29,77l0 3 -29 81 -8 6c-3,13 -9,26 -16,37 -6,19 -20,33 -40,38 -2,10 -3,23 -4,29 -7,30 -17,58 -38,81l-9 10 -15 5c-13,33 -22,75 -44,103 -5,9 -10,15 -16,26l-1 7 -8 13 -12 12c-4,21 -10,39 -10,54l0 5 -2 9 -1 4c-1,2 -1,4 -2,5 15,-4 31,-3 48,-2 8,-6 17,-10 26,-12l1 -4 37 -25 22 3c9,2 29,1 40,-2l3 -5 26 -14 14 0c8,0 23,0 35,-2l8 -13 100 -42 11 -2 5 0c4,0 11,0 17,-1l16 -19 19 -4c12,-2 37,-5 52,-9l14 -17 14 -5c93,-33 268,-165 354,-209 19,-25 52,-33 84,-35 10,-8 20,-14 27,-22l0 -25 43 -26 44 -44 20 -9 3 0c22,-10 80,-72 97,-91l9 -20 68 -55c28,-48 103,-104 130,-147 -1,-3 -2,-6 -3,-9 -14,-38 -9,-84 25,-100 81,-134 -67,-262 -50,-414 -5,-8 -7,-17 -9,-26l-21 -19 -10 -22 0 -9 -9 -5 -11 -38 0 -1c-7,-9 -19,-21 -29,-31zm-26280 2207c-6,8 -14,16 -22,22 9,11 15,24 15,43 0,45 -38,69 -78,69 -19,0 -38,-5 -53,-14 0,30 -18,50 -41,60l-14 28c-7,43 -39,79 -86,79l-1 0 -4 0 -34 -4 0 7c0,43 -11,71 -38,85 -16,36 -64,58 -106,66 -3,40 -15,79 -54,91 -26,20 -50,39 -87,39 -17,0 -33,-6 -45,-17l-12 12 -16 0c-41,15 -89,47 -134,56 -9,33 -32,57 -73,57 -44,0 -87,-9 -131,-9l-24 0 -35 -35 0 -3c-14,13 -29,24 -45,34l-7 4 -16 5 -8 0 -1 2 -30 20 -97 0 -22 18 -21 0c-2,0 -4,0 -6,1l-3 3 -26 14 -215 0 -13 -2 -60 -28 -9 -6 -22 -22c-42,1 -83,3 -125,-1l-16 -1 -27 -19 -12 -27c-63,-14 -106,-31 -120,-92l-28 -3 -32 -45 3 -11 -19 -24 -58 -22 -21 -31 0 -10c-7,-7 -19,-17 -25,-22 -21,-17 -39,-36 -53,-59 -31,-11 -48,-37 -48,-76 0,-23 6,-43 17,-58 -34,-41 -45,-113 -48,-167 -54,-47 -46,-126 -46,-195 0,-28 7,-56 22,-76 -4,-140 -34,-317 41,-438 -1,-33 -3,-57 14,-86l0 -105 19 -19c4,-40 18,-92 42,-126 5,-30 16,-57 16,-83l0 -9 5 -17 5 -7c8,-12 13,-29 17,-44 -14,-34 -9,-80 22,-103l0 -45 16 -25c23,-45 39,-107 61,-156l0 -30 9 -22 13 -13c10,-33 32,-59 32,-70l0 -6 2 -11 31 -79c10,-57 72,-126 75,-166l0 -25 35 -34 1 0c0,-5 0,-10 0,-13 0,-49 13,-70 32,-111 2,-7 5,-12 5,-20l0 -24 34 -35 9 0c3,-10 7,-19 12,-28 1,-1 1,-3 1,-5l-8 -15 20 -30c3,-4 8,-15 8,-21l0 -24 35 -35 8 0c1,-4 3,-9 5,-13 6,-31 17,-62 33,-89l8 -13 18 -10 0 -3 3 -6c18,-36 27,-81 44,-119l4 -9 0 -14 35 -35 6 0 0 -1 14 -15 17 -27 0 -31 5 -4 0 -45 35 -35 5 0 0 -1 32 -32c0,-6 0,-12 0,-16l0 -24 27 -28 0 -7 21 -31 34 -12c6,-18 16,-32 33,-40l6 -37 34 -29 22 0c17,0 32,2 45,8 20,-29 47,-57 73,-78 4,-8 10,-16 17,-23l8 -21 54 -54 11 -7 121 -44 2 1c21,-11 50,-15 76,-16l10 -10 35 0 19 -7 10 -2 6 0c55,0 73,51 73,96 0,10 -2,20 -5,29 10,3 20,7 31,12l15 8 1 2c13,4 24,12 33,21 31,12 51,41 51,77 0,3 0,6 0,9l19 -21 76 30 0 40c0,48 -18,91 -18,131l0 10 -1 1 1 1 0 8 4 3 12 20 21 146 -2 16 -3 7c-7,17 -14,37 -19,56 0,52 -6,153 -44,204 -16,68 -61,109 -64,176l0 5 -2 11 -23 53 -30 19 -16 0c-13,64 -2,182 -78,201 -12,26 -24,60 -23,76l2 13 -9 26 -26 26c-5,24 -17,37 -33,57 0,4 0,7 1,11 0,26 -6,52 -21,69 -4,40 -16,63 -50,74 -8,15 -23,26 -42,35 2,38 1,72 -33,96 -16,26 -27,63 -37,93 0,8 -2,15 -4,21 6,16 6,32 5,49l17 23 5 17 0 10c0,34 -9,70 -23,101 -1,6 -3,12 -5,18 -7,21 -26,41 -30,52 0,58 -39,66 -59,95 -1,40 -10,79 -20,118l-9 39 -29 4c1,8 2,15 3,23l1 7 5 6 0 19c0,73 -41,140 -41,203 0,24 3,49 6,73l45 52 -11 24c60,-11 121,-47 185,-54l8 -6c5,-14 12,-26 23,-37 25,-22 46,-24 71,-29 29,-35 52,-71 87,-102 3,-7 7,-14 11,-20 15,-22 28,-26 42,-37l0 -19 46 -36 6 1 23 -28c7,-28 28,-39 54,-53 9,-36 44,-79 80,-96l58 -49c19,-43 45,-98 79,-126l11 -9 18 -4c10,-14 21,-43 22,-54l0 -5 2 -11 21 -58 22 -15c7,-17 19,-30 36,-37 32,-38 58,-84 76,-130l5 -13 20 -18 27 -8c14,-38 39,-76 61,-104l9 -10c1,-6 3,-12 7,-19l1 -3 4 -6 24 -27c3,-9 7,-17 14,-25l0 -22 42 -33 9 -18c2,-16 9,-25 16,-42l0 -20 30 -30 -9 -28 36 -49 30 0c29,-5 68,-90 72,-117l1 -7 6 -14 26 -33c4,-19 12,-37 26,-51l7 -20c1,-30 19,-55 43,-70 21,-54 66,-129 103,-170 4,-32 14,-57 32,-74l-8 -91 36 -39 26 0c29,-4 68,-90 72,-116l1 -8 6 -14 26 -33c4,-19 12,-37 25,-50l8 -21c1,-29 18,-55 43,-69 69,-185 125,-173 108,-246l77 -61 33 -84 64 -46 10 -66c8,-31 54,-45 65,-75l34 -64 8 -20 46 -52 0 -2 11 -23 31 -27c17,-59 73,-136 126,-136l30 0 34 35 0 24c0,31 -8,62 -28,83 -7,24 -19,46 -33,65 -9,38 -36,69 -52,102 0,15 -2,28 -7,39 3,5 4,10 6,16 26,8 47,26 54,55l16 28 4 15 0 8c0,3 0,7 0,10 10,-4 21,-7 35,-7 14,0 31,5 45,13 6,-37 31,-49 60,-66l5 -12 6 -8c7,-8 20,-77 27,-94l8 -16 29 -20 13 0 12 -43 -17 90 117 0 49 -113c28,4 52,24 62,51 8,-7 18,-12 30,-16l10 -22 48 -42c1,-41 7,-87 36,-110l0 -2 13 -26 23 -16c10,-32 -20,-67 8,-86 0,-2 63,-29 63,-30 84,-13 114,-29 146,30l-24 66 25 24c-7,35 30,15 5,35l0 42 -30 30 -4 12 -23 27c-4,12 -10,19 -15,33l0 9 -5 16 -4 5c-3,7 -5,21 -6,29 -3,22 -8,48 -18,69 2,34 -8,66 -34,82l-24 50c-19,128 -80,260 -91,278 2,30 -4,60 -22,80l0 25 -9 22 -8 9c-7,7 -15,13 -23,18 -9,15 -21,46 -23,58l0 18 -22 31 -20 7c-7,43 -24,89 -41,123l-7 15 -27 16c-2,3 -4,5 -7,7 -2,7 -4,14 -8,20 -4,32 -19,58 -50,67 -2,3 -5,7 -8,11 -2,17 -10,33 -22,44l7 36 -9 28 -11 10c-6,6 -12,11 -18,16l0 3 -31 30c-3,5 -7,9 -11,14 -3,21 -10,40 -21,55l0 28 -9 22 -9 8c-7,8 -15,14 -23,19 -9,17 -20,46 -23,58l0 16 -20 31 -9 4c-3,6 -5,13 -8,19l-11 22 -2 1c-8,29 -19,59 -32,85l-8 15 -26 17c-3,2 -5,4 -7,6 -2,7 -5,14 -8,21 -4,31 -20,58 -51,66 -2,4 -5,7 -7,11 -3,17 -11,33 -23,44l7 36 -9 28 -10 11c-6,6 -12,11 -19,15l0 3 -34 34c-17,20 -40,30 -43,93l-1 24 -34 33 -3 0 -30 42c-3,46 -17,74 -47,115l-4 5 -11 9 -4 2c-13,26 -35,51 -56,68l-8 5 -3 2c-2,2 -3,5 -4,7 -8,18 -18,34 -31,47 -4,52 -16,103 -16,152l0 18 -20 30 -13 6c-15,10 -41,56 -54,80 0,4 -1,7 -2,10 -7,33 -26,60 -49,85 -9,10 -33,31 -43,44l-5 15 -46 67c-3,15 -8,29 -16,41l0 74 -6 18 -73 100 -25 13 -15 0c0,0 0,0 0,0 -9,26 -30,43 -58,48l-28 15c-3,40 -15,73 -48,97l0 4 -33 33c-3,6 -8,12 -13,16 -4,11 -8,21 -14,30 -7,36 -29,60 -69,63l-23 23 -22 10 -11 0c-3,0 -6,3 -8,5l-8 8 -14 5c-16,32 -40,58 -79,58l-7 0 -2 0c-4,3 -9,6 -14,8 -8,22 -24,37 -48,44 -9,5 -19,10 -29,13zm2662 -3460l0 -48 83 -21 61 111 -25 43 -1 23 -3 2 0 11c0,5 0,11 0,18 3,1 6,3 9,5l10 -4c28,-27 61,-54 101,-54 22,0 39,10 51,25 23,6 40,19 47,44 4,5 7,10 10,15l83 30 8 12 13 0 32 32 0 20c31,10 46,34 66,66l24 18c63,31 52,141 52,200 0,24 -8,49 -26,63l1 21c20,11 34,31 34,62 0,3 0,10 0,15l6 4 15 25 0 76 -4 14 -13 23c-1,125 -7,249 -8,374l20 16 4 20c13,68 22,138 22,207l0 16 -17 27 -2 1c-5,35 13,119 26,185 2,-3 4,-5 6,-8 5,-34 12,-64 35,-82l0 -43 12 -23 16 -13 12 -23 7 -6 2 -9 21 -39c1,-33 17,-40 30,-66l0 -17 10 -21 58 -51c2,-15 8,-26 8,-41l0 -27 13 -24 3 -2 0 -12 16 -26 33 -19 21 -53c0,-23 10,-43 25,-58 5,-24 17,-40 37,-49 8,-26 21,-51 40,-68 7,-25 21,-42 21,-56l0 -16 10 -22 9 -8c29,-24 40,-55 70,-79l-1 -4 14 -44 7 -3c6,-26 17,-48 36,-60 9,-28 25,-55 46,-73 9,-31 26,-35 26,-64l17 -27c0,-2 20,-40 20,-41l42 -14 13 -43 27 -39c14,-23 21,-65 43,-82 101,-221 63,-173 174,-270 1,-15 7,-29 17,-39l65 -126 73 -102c28,-35 145,-185 186,-185l27 0 33 41c-4,19 -14,155 -5,165l5 39 -69 108c33,2 165,-132 165,-88 0,20 -6,29 -13,44l0 17 -32 32 -14 0 1 3 -20 51 -50 42 -20 45c-2,9 -16,67 -21,77 -36,126 -164,171 53,95l23 -67c39,0 109,-86 109,-42 0,36 -9,122 -37,141 -11,26 61,80 66,80 36,0 56,-227 56,-193l109 -126 29 70c2,4 -46,95 -46,100 0,23 17,55 7,73l-32 25 37 73 -10 2c-3,4 -7,11 -10,17 -2,40 25,5 -8,29 -13,22 -21,47 -34,72 6,9 10,21 10,36 0,17 -4,25 -8,39l1 6 -6 26 -8 10c-13,16 -35,47 -38,68l-2 14 -16 22 -3 2 0 21 -16 27 -25 12c-7,27 -15,54 -26,80l-4 9 -13 14 -3 2c-5,13 -9,25 -18,36 -5,13 -12,26 -18,38 9,11 15,24 15,42 0,22 -7,30 -12,46l0 2 -3 22 -56 89 -10 6c-4,11 -7,29 -7,36l0 36 -33 32 -15 0c-1,3 -2,6 -3,8l0 20 -24 29c-1,8 -1,17 -1,22l0 23 -16 16c-6,17 -16,31 -31,40 -14,14 -33,22 -54,22l-3 0 -5 0 -23 -5c-4,5 -7,10 -11,14l7 15 -2 17c13,15 21,35 21,54 0,25 -9,39 -22,52 -3,9 -7,18 -13,26 1,4 2,9 2,14 0,22 -15,46 -30,64l-3 38 -16 3c-9,28 -34,43 -65,43 -20,0 -37,-7 -50,-18 -5,7 -9,13 -12,19l0 21 -1 1c8,6 15,14 19,24l28 14 17 27 0 16c0,39 -16,47 -34,71l0 17 -28 31 -6 1c-13,28 -22,50 -63,56 -3,15 -10,28 -21,37 -2,4 -4,7 -7,11 3,9 4,19 4,31 0,28 -13,50 -34,60l0 14 -8 20 -8 8c-2,2 -4,4 -7,7l13 12 4 40 -68 100 -19 -5 -5 39 -12 20 -9 6c-22,15 -43,53 -60,86 9,21 5,47 -13,67 -10,31 -29,55 -29,66l0 21 -29 31 -13 2c-3,8 -4,23 -4,29l0 23 -23 23 -1 4 -7 10c-10,15 -20,35 -20,53l0 11 -8 21 -19 19 -14 46 -29 22 -1 0c-12,39 -42,67 -68,99l-5 71 -33 19c-9,35 -25,72 -40,103 5,12 8,23 8,37 0,34 -17,51 -41,61 -4,12 -11,23 -22,30l-1 2c-3,13 -9,24 -17,35l-1 4 -16 31c-4,22 -16,35 -23,55 1,29 10,50 -9,80 -9,15 -23,24 -39,29l-17 25 -13 11 -69 26 -48 -33 0 -1c-33,15 -67,27 -103,27 -28,0 -57,-7 -75,-25 -6,-3 -12,-6 -16,-10l-10 -4 -22 19 -101 15 -39 -37 4 -51 -20 -21 -39 -17 -16 -17 -4 -11c-1,-5 -7,-12 -10,-16 -2,-3 -4,-7 -5,-10l-1 0 -6 2c-6,34 -24,57 -67,57 -22,0 -39,-8 -52,-22l-22 -9 -19 -28c0,-44 -18,-88 -22,-145l-16 -16 0 -23c0,-30 -16,-45 -20,-77l-1 -3 -2 -1 -31 -125 -1 -11 1 -6c1,-4 3,-11 5,-18 -37,-17 -56,-61 -56,-102 0,-16 4,-32 11,-46 -14,-15 -24,-29 -27,-62l0 -2 -13 -214 0 -3c0,-12 3,-23 7,-34 -4,-18 -7,-37 -10,-52 -9,-53 -16,-107 -22,-160 -9,-71 -21,-159 -21,-231 0,-46 11,-108 63,-117 0,-1 0,-1 0,-1 -16,-17 -25,-41 -25,-66 0,-76 -5,-152 -9,-228 -9,15 -18,29 -27,43l0 37 -8 20 -8 8c-9,9 -17,24 -22,37 -3,21 -12,40 -32,53 -8,6 -14,8 -20,10 -23,55 -53,93 -81,146 -3,31 -24,56 -53,68l-13 24 -6 6c0,2 0,4 0,6 0,35 -9,66 -38,78 -36,59 -115,206 -129,250l0 30 -34 26 0 3 -32 33 -5 0c-4,8 -8,19 -9,24 0,36 -10,50 -30,74l-2 7 -90 188c-3,31 -17,35 -28,57l0 10 -2 10 -38 92 -8 5c-7,21 -23,36 -48,41l-10 49 -17 13 -4 74 -24 28 -29 7 -67 112 -22 112 -56 31c-3,18 -62,103 -62,122l-47 133 -94 80c-136,159 -19,132 -154,48l16 -139c-9,4 -18,7 -28,7 -16,0 -29,-5 -38,-13 -3,2 -6,5 -9,7l-10 22 -9 11 -17 12c-3,10 -7,19 -13,27 -7,22 -20,43 -36,60 -5,18 -15,26 -26,44l0 5 -5 16 -40 56c-5,17 -16,31 -30,41l0 44 -33 32 -7 0c-2,5 -4,10 -5,13 -15,43 -36,87 -90,87 -42,0 -68,-37 -68,-76l0 -6 3 -12 64 -134c3,-29 12,-59 28,-84 -1,-2 -3,-4 -4,-6l-11 9c-7,20 -23,35 -46,40 -8,18 -18,34 -32,45 -22,55 -65,144 -116,162 -16,34 -45,58 -89,62l-11 1c-19,33 -38,66 -48,94l0 24 -26 26 -9 15 -25 16c-5,21 -11,41 -23,61l-19 32 -23 -4c-4,6 -7,12 -10,16l-23 34 -78 -23 0 -41c0,-18 4,-30 12,-43 2,-41 26,-87 47,-124 3,-31 13,-66 35,-90l2 -42c0,-34 1,-64 23,-88 10,-38 23,-85 44,-118 1,-25 5,-51 19,-69l8 -32 18 -13c8,-48 30,-90 30,-133l-5 -69 17 -29 26 -13 38 -80 0 -26 -196 448 1 0 3 -6c37,-64 67,-133 103,-198 4,-31 20,-59 38,-85 4,-17 11,-33 24,-44l4 -9 0 -49 22 -22c-7,-38 -6,-71 25,-101l35 -83 5 -4c2,-29 9,-59 30,-74 18,-59 46,-112 72,-168l7 -14 5 -4c8,-20 23,-35 45,-40 1,-6 3,-12 5,-18 1,-12 5,-24 11,-36 4,-9 15,-22 18,-29l0 -6 4 -15 34 -56c0,-5 1,-9 2,-14 5,-20 19,-37 23,-51l0 -22 22 -22c0,0 0,-1 0,-1 6,-23 16,-43 33,-56l1 -14 15 -22 16 -9c1,-3 1,-5 1,-8l0 -23 23 -23c-3,-13 -5,-26 -5,-41 2,-26 11,-49 28,-69l40 -94 9 -6c2,-29 7,-60 27,-78l95 -206 5 -3c5,-15 15,-28 27,-36 6,-8 14,-14 23,-19 1,-4 2,-9 4,-13 1,-17 6,-32 14,-47 5,-8 16,-23 19,-30l0 -6 4 -14 38 -65c1,-7 3,-15 5,-22 5,-15 23,-41 25,-51l0 -22 24 -24c6,-27 18,-49 37,-62l6 -30 29 -24c5,-20 16,-37 38,-44 1,-2 2,-4 4,-6l0 -4 4 -15 4 -7c14,-23 46,-62 52,-87l4 -19 14 -12c2,-8 5,-15 10,-21l0 -21 7 -19 6 -8c92,-107 140,-245 227,-358 5,-28 19,-55 39,-74l-5 -42 21 -34 14 -5 0 -9 24 -23c4,-10 10,-18 17,-24l8 -21 12 -15 11 -6c2,-10 4,-21 4,-30l0 -8 4 -14 48 -83 9 -9 5 -4c4,-2 9,-6 12,-10 3,-9 8,-17 15,-25 4,-34 24,-45 46,-66l1 -3 11 -26c4,-48 33,-92 61,-131 9,-29 35,-48 64,-60l0 -20 25 -25 0 -32 12 -23 39 -30 32 -3 61 31 5 8 53 -22 5 4 24 -16 -2 -25 13 -28 13 -8c2,-2 5,-5 7,-9 9,-32 38,-51 74,-51 11,0 22,2 33,5 9,-14 18,-25 33,-31l25 -80 4 -1z"/>
 </g>
</svg>